name GIL11_fast2.mot
datacolumns 153
datarows 4
range 0.69999993 0.72499990
endheader

                time	           pelvis_tx	           pelvis_ty	           pelvis_tz	         pelvis_tilt	         pelvis_list	     pelvis_rotation	       hip_flexion_r	     hip_adduction_r	      hip_rotation_r	        knee_angle_r	       ankle_angle_r	    subtalar_angle_r	         mtp_angle_r	       hip_flexion_l	     hip_adduction_l	      hip_rotation_l	        knee_angle_l	       ankle_angle_l	    subtalar_angle_l	         mtp_angle_l	    lumbar_extension	      lumbar_bending	     lumbar_rotation	     ground_force_vx	     ground_force_vy	     ground_force_vz	     ground_force_px	     ground_force_py	     ground_force_pz	     ground_force_vx	     ground_force_vy	     ground_force_vz	     ground_force_px	     ground_force_py	     ground_force_pz	     ground_torque_x	     ground_torque_y	     ground_torque_z	     ground_torque_x	     ground_torque_y	     ground_torque_z	    ground_marker_px	    ground_marker_py	    ground_marker_pz	    ground_marker_px	    ground_marker_py	    ground_marker_pz	    ground_marker_px	    ground_marker_py	    ground_marker_pz	    ground_marker_px	    ground_marker_py	    ground_marker_pz	    ground_marker_px	    ground_marker_py	    ground_marker_pz	    ground_marker_px	    ground_marker_py	    ground_marker_pz	    ground_marker_px	    ground_marker_py	    ground_marker_pz	    ground_marker_px	    ground_marker_py	    ground_marker_pz	    ground_marker_px	    ground_marker_py	    ground_marker_pz	    ground_marker_px	    ground_marker_py	    ground_marker_pz	    ground_marker_px	    ground_marker_py	    ground_marker_pz	    ground_marker_px	    ground_marker_py	    ground_marker_pz	    ground_marker_px	    ground_marker_py	    ground_marker_pz	    ground_marker_px	    ground_marker_py	    ground_marker_pz	    ground_marker_px	    ground_marker_py	    ground_marker_pz	    ground_marker_px	    ground_marker_py	    ground_marker_pz	    ground_marker_px	    ground_marker_py	    ground_marker_pz	    ground_marker_px	    ground_marker_py	    ground_marker_pz	    ground_marker_px	    ground_marker_py	    ground_marker_pz	    ground_marker_px	    ground_marker_py	    ground_marker_pz	    ground_marker_px	    ground_marker_py	    ground_marker_pz	    ground_marker_px	    ground_marker_py	    ground_marker_pz	    ground_marker_px	    ground_marker_py	    ground_marker_pz	    ground_marker_px	    ground_marker_py	    ground_marker_pz	    ground_marker_px	    ground_marker_py	    ground_marker_pz	    ground_marker_px	    ground_marker_py	    ground_marker_pz	    ground_marker_px	    ground_marker_py	    ground_marker_pz	    ground_marker_px	    ground_marker_py	    ground_marker_pz	    ground_marker_px	    ground_marker_py	    ground_marker_pz	    ground_marker_px	    ground_marker_py	    ground_marker_pz	    ground_marker_px	    ground_marker_py	    ground_marker_pz	    ground_marker_px	    ground_marker_py	    ground_marker_pz	    ground_marker_px	    ground_marker_py	    ground_marker_pz	    ground_marker_px	    ground_marker_py	    ground_marker_pz	    ground_marker_px	    ground_marker_py	    ground_marker_pz	    ground_marker_px	    ground_marker_py	    ground_marker_pz	    ground_marker_px	    ground_marker_py	    ground_marker_pz	
          0.69999993	          2.25288677	          0.88002098	         -0.28320178	         -5.12318993	          2.91641474	          2.47512698	         25.05643082	         -6.72122049	         -2.96103597	        -58.80053329	         -0.17712656	          0.00000000	          0.00000000	          7.58048820	          6.16201067	         11.62152672	        -15.98479843	         10.41577148	          0.00000000	          0.00000000	          1.19886363	         -7.11343336	         -2.78477526	          0.00000000	          0.00000000	          0.00000000	          1.58256323	          0.00000000	         -0.17446542	        -11.04331701	        414.43577732	         32.53060766	          2.19950684	          0.00000000	         -0.34753442	          0.00000000	          0.00000000	          0.00000000	          0.00000000	          0.32895166	          0.00000000	          2.17648888	          0.82355112	         -0.28707811	          2.16602921	          0.80262655	         -0.20947386	          2.15703225	          0.81186086	         -0.36105415	          2.29914546	          0.43717813	         -0.18975201	          2.17472506	          0.42572638	         -0.34361482	          2.07192063	          0.14988682	         -0.22760302	          2.08841944	          0.06909268	         -0.32838795	          2.25288677	          0.88002098	         -0.28320178	          2.25600672	          0.87275088	         -0.16485450	          2.24976659	          0.88729101	         -0.40154907	          2.06162715	          0.93903822	         -0.24121407	          2.05617380	          0.93896735	         -0.29584801	          2.29553103	          0.43898401	         -0.13189292	          2.18517137	          0.42363009	         -0.40062782	          2.32157445	          0.43631577	         -0.25424933	          2.18731141	          0.43869212	         -0.27973220	          2.05734229	          0.15658975	         -0.19096233	          2.08081222	          0.06925696	         -0.36765757	          2.08669472	          0.15281691	         -0.26028109	          2.09572363	          0.07778917	         -0.30216444	          2.14370275	          1.37791884	         -0.28603870	          2.27123475	          1.32594061	         -0.23264420	          2.27282238	          1.31896031	         -0.33918947	          2.26871133	          1.31874919	         -0.28498906	          2.31275797	          1.25211596	         -0.28399953	          2.41451335	          0.61444986	         -0.19307140	          2.22375369	          0.55101705	         -0.49116236	          2.33035231	          0.64043099	         -0.14636555	          2.15948081	          0.60121638	         -0.43970215	          2.34906960	          0.55400991	         -0.14760680	          2.17015910	          0.51533270	         -0.42126334	          2.09303594	          0.21922754	         -0.11353184	          2.20445013	          0.17469724	         -0.31301749	          2.10244417	          0.22769834	         -0.15579775	          2.16586518	          0.18297498	         -0.32690051	          2.12736034	          0.07131872	         -0.20104149	          2.19378471	          0.04120932	         -0.34990519	
          0.70833325	          2.26546144	          0.88011163	         -0.28322935	         -5.27583122	          2.54961872	          2.47892427	         26.64508057	         -6.27782345	         -3.42956519	        -57.65868378	          0.94315773	          0.00000000	          0.00000000	          6.26794434	          5.76472759	         12.08356476	        -14.79788589	         10.38184357	          0.00000000	          0.00000000	          1.31528211	         -6.91955280	         -3.08508015	          0.00000000	          0.00000000	          0.00000000	          1.58386328	          0.00000000	         -0.17483913	         -7.57497719	        411.09272680	         30.93857821	          2.20331372	          0.00000000	         -0.34698532	          0.00000000	          0.00000000	          0.00000000	          0.00000000	          0.20532642	          0.00000000	          2.18955588	          0.82438898	         -0.28718162	          2.17854381	          0.80339986	         -0.20886174	          2.16927314	          0.81173432	         -0.36047772	          2.32108212	          0.44064227	         -0.19021721	          2.17708802	          0.42584112	         -0.34318981	          2.10677648	          0.14307456	         -0.22825865	          2.08904958	          0.06967805	         -0.32764792	          2.26546144	          0.88011163	         -0.28322935	          2.26878953	          0.87356436	         -0.16502453	          2.26213312	          0.88665891	         -0.40143418	          2.07458329	          0.93972236	         -0.24105024	          2.06901479	          0.93957305	         -0.29566944	          2.31716251	          0.44207552	         -0.13236754	          2.18773699	          0.42350474	         -0.40015596	          2.34403944	          0.44149622	         -0.25545877	          2.18687820	          0.43935809	         -0.27891305	          2.09205341	          0.14898367	         -0.19153924	          2.08096409	          0.06996728	         -0.36682114	          2.12134981	          0.14680968	         -0.26092562	          2.09556723	          0.07853406	         -0.30125752	          2.15774488	          1.37794757	         -0.28652346	          2.28443098	          1.32648957	         -0.23224954	          2.28638721	          1.31923079	         -0.33821139	          2.28212428	          1.31902719	         -0.28470013	          2.32615948	          1.25254834	         -0.28295976	          2.43126988	          0.62141818	         -0.19221348	          2.22981191	          0.55027306	         -0.49014187	          2.34647250	          0.64470792	         -0.14588974	          2.16670656	          0.60186321	         -0.43945655	          2.36761737	          0.55923581	         -0.14774416	          2.17420220	          0.51666999	         -0.42091715	          2.12502050	          0.21274105	         -0.11400669	          2.20583415	          0.17442687	         -0.31346026	          2.13396120	          0.22178710	         -0.15604489	          2.16852260	          0.18444638	         -0.32582581	          2.16692019	          0.06837966	         -0.20073208	          2.19387078	          0.04127785	         -0.34961939	
          0.71666658	          2.27803755	          0.87988091	         -0.28322512	         -5.43025398	          2.20052743	          2.50587201	         28.14009857	         -5.87187052	         -3.85663199	        -56.27237701	          1.91945803	          0.00000000	          0.00000000	          4.93583679	          5.36814928	         12.68677616	        -13.55677795	         10.29337406	          0.00000000	          0.00000000	          1.47569215	         -6.57578325	         -3.36372161	          0.00000000	          0.00000000	          0.00000000	          1.58516187	          0.00000000	         -0.17528531	         -3.87293916	        411.01356015	         30.17897938	          2.20624170	          0.00000000	         -0.34643182	          0.00000000	          0.00000000	          0.00000000	          0.00000000	          0.16792114	          0.00000000	          2.20209336	          0.82434785	         -0.28710073	          2.19108486	          0.80382556	         -0.20822702	          2.18149209	          0.81132472	         -0.35986656	          2.34236002	          0.44386017	         -0.19067195	          2.17930412	          0.42597309	         -0.34283453	          2.14220166	          0.13606696	         -0.22855477	          2.08968663	          0.07034241	         -0.32684100	          2.27803755	          0.87988091	         -0.28322512	          2.28161001	          0.87400699	         -0.16522604	          2.27446532	          0.88575488	         -0.40122417	          2.08752084	          0.94007385	         -0.24081366	          2.08188534	          0.93987072	         -0.29543376	          2.33821797	          0.44494033	         -0.13283014	          2.19028807	          0.42339614	         -0.39972666	          2.36591172	          0.44577166	         -0.25612861	          2.18541193	          0.44022089	         -0.27747616	          2.12736583	          0.14118636	         -0.19176224	          2.08107734	          0.07075524	         -0.36590141	          2.15654564	          0.14026804	         -0.26126000	          2.09568524	          0.07970601	         -0.30056804	          2.17104220	          1.37796092	         -0.28675178	          2.29767489	          1.32673478	         -0.23207077	          2.29995084	          1.31951678	         -0.33761027	          2.29560900	          1.31899536	         -0.28440309	          2.33968878	          1.25289059	         -0.28245392	          2.44757247	          0.62781918	         -0.19154531	          2.23609877	          0.54952812	         -0.48902142	          2.36244369	          0.64832830	         -0.14562906	          2.17361999	          0.60222435	         -0.43944708	          2.38586450	          0.56374574	         -0.14779754	          2.17808032	          0.51682168	         -0.42018300	          2.15743041	          0.20612386	         -0.11418114	          2.20725632	          0.17419299	         -0.31397167	          2.16600609	          0.21558082	         -0.15632354	          2.16933346	          0.18465760	         -0.32585895	          2.20680761	          0.06551395	         -0.19992356	          2.19394827	          0.04135536	         -0.34924644	
          0.72499990	          2.29062510	          0.87934399	         -0.28320357	         -5.57833481	          1.87070405	          2.56215477	         29.52675247	         -5.51059198	         -4.24408054	        -54.63216019	          2.74993205	          0.00000000	          0.00000000	          3.59437752	          4.97970390	         13.37127781	        -12.31314468	         10.16658211	          0.00000000	          0.00000000	          1.63975036	         -6.03857994	         -3.95673466	          0.00000000	          0.00000000	          0.00000000	          1.58644324	          0.00000000	         -0.17580807	          0.08252523	        413.98635057	         29.46917013	          2.20834229	          0.00000000	         -0.34584579	          0.00000000	          0.00000000	          0.00000000	          0.00000000	          0.13850903	          0.00000000	          2.21494055	          0.82428485	         -0.28680146	          2.20368028	          0.80390155	         -0.20758002	          2.19370127	          0.81063795	         -0.35923040	          2.36295986	          0.44677511	         -0.19111356	          2.18152261	          0.42613375	         -0.34252638	          2.17824531	          0.12893362	         -0.22845632	          2.09028840	          0.07111590	         -0.32596073	          2.29062510	          0.87934399	         -0.28320357	          2.29448938	          0.87408543	         -0.16545121	          2.28676105	          0.88460261	         -0.40095592	          2.10042906	          0.94008392	         -0.24050534	          2.09477711	          0.93985027	         -0.29514867	          2.35867238	          0.44752958	         -0.13327718	          2.19290900	          0.42330551	         -0.39932734	          2.38540530	          0.45047557	         -0.25718075	          2.19290519	          0.44058526	         -0.27668053	          2.16330838	          0.13328478	         -0.19160588	          2.08116937	          0.07164216	         -0.36490390	          2.19219160	          0.13398880	         -0.26131612	          2.09653306	          0.08063351	         -0.29982945	          2.18429780	          1.37769258	         -0.28681010	          2.31086874	          1.32607305	         -0.23198734	          2.31403017	          1.31924105	         -0.33754593	          2.30915546	          1.31864560	         -0.28409195	          2.35331368	          1.25241804	         -0.28229508	          2.46346235	          0.63354504	         -0.19106068	          2.24255323	          0.54875201	         -0.48783144	          2.37796879	          0.65220475	         -0.14472666	          2.18048048	          0.60245728	         -0.43895632	          2.40334058	          0.56745601	         -0.14779601	          2.18524528	          0.51674253	         -0.41947013	          2.19024062	          0.19947807	         -0.11404793	          2.20866227	          0.17402232	         -0.31441763	          2.19817758	          0.20918311	         -0.15612292	          2.16849208	          0.18399177	         -0.32685611	          2.24701977	          0.06282964	         -0.19864523	          2.19401598	          0.04143428	         -0.34881511	
